<svg xmlns="http://www.w3.org/2000/svg" width="330" height="330" viewBox="-220 130 800 400">
                        <path id="lightLAMP" d="M112.1 454.3c0 6.297 1.816 12.44 5.284 17.69l17.14 25.69c5.25 7.875 17.17 14.28 26.64 14.28h61.67c9.438 0 21.36 -6.401 26.61 -14.28l17.08 -25.68c2.938 -4.438 5.348 -12.37 5.348 -17.7L272 415.1h-160L112.1 454.3zM192 0C90.02 0.32 16 82.97 16 175.1c0 44.38 16.44 84.84 43.56 115.8c16.53 18.84 42.34 58.23 52.22 91.45c0.031 0.25 0.094 0.517 0.125 0.782h160.2c0.031 -0.266 0.094 -0.517 0.125 -0.782c9.875 -33.22 35.69 -72.61 52.22 -91.45C351.6 260.8 368 220.4 368 175.1C368 78.8 289.2 0.004 192 0zM288.4 260.1c-15.66 17.85 -35.04 46.3 -49.05 75.89h-94.61c-14.01 -29.59 -33.39 -58.04 -49.04 -75.88C75.24 236.8 64 206.1 64 175.1C64 113.3 112.1 48.25 191.1 48C262.6 48 320 105.4 320 175.1C320 206.1 308.8 236.8 288.4 260.1zM176 80z"/>

  </svg>

  